<svg xmlns="http://www.w3.org/2000/svg" xmlns:xlink="http://www.w3.org/1999/xlink" contentStyleType="text/css" data-diagram-type="CLASS" height="319px" preserveAspectRatio="none" style="width:252px;height:319px;background:#FFFFFF;" version="1.1" viewBox="0 0 252 319" width="252px" zoomAndPan="magnify"><defs/><g><!--class C_0011401709187939684127--><g class="entity" data-entity="C_0011401709187939684127" data-source-line="1" data-uid="ent0002" id="entity_C_0011401709187939684127"><rect fill="#F1F1F1" height="113.2038" rx="2.5" ry="2.5" style="stroke:#181818;stroke-width:0.5;" width="141.3595" x="55.5" y="199.21"/><ellipse cx="109.8268" cy="215.21" fill="#ADD1B2" rx="11" ry="11" style="stroke:#181818;stroke-width:1;"/><path d="M109.2956,222.1319 Q107.5456,222.1319 106.4049,221.3975 Q105.2799,220.6475 104.7174,219.3038 Q104.1706,217.9444 104.1706,216.1475 Q104.1706,214.1163 104.8268,212.6631 Q105.4831,211.21 106.7643,210.4288 Q108.0456,209.6475 109.9206,209.6475 Q110.8112,209.6475 111.4831,209.835 Q112.1549,210.0069 112.8424,210.3506 L112.0299,212.3663 Q111.4049,212.0538 110.8581,211.9288 Q110.3268,211.8038 109.8424,211.8038 Q108.6706,211.8038 107.9674,212.335 Q107.2643,212.8663 106.9674,213.8194 Q106.6706,214.7725 106.6706,216.0381 Q106.6706,218.0538 107.3893,219.0225 Q108.1081,219.9756 109.7018,219.9756 Q110.2956,219.9756 110.9206,219.8194 Q111.5456,219.6631 112.3737,219.2881 L112.3737,221.5069 Q111.6393,221.8194 110.8424,221.9756 Q110.0612,222.1319 109.2956,222.1319 Z " fill="#000000"/><text fill="#000000" font-family="sans-serif" font-size="14" lengthAdjust="spacing" textLength="24.2059" x="130.3268" y="220.642">Foo</text><line style="stroke:#181818;stroke-width:0.5;" x1="56.5" x2="195.8595" y1="231.21" y2="231.21"/><ellipse cx="66.5" cy="246.244" fill="#84BE84" rx="3" ry="3" style="stroke:#038048;stroke-width:1;"/><text fill="#000000" font-family="sans-serif" font-size="14" lengthAdjust="spacing" textLength="99.5116" x="75.5" y="250.1759">Foo(int v) : void</text><line style="stroke:#181818;stroke-width:1;stroke-dasharray:1,2;" x1="56.5" x2="195.8595" y1="258.2779" y2="258.2779"/><ellipse cx="66.5" cy="273.3119" fill="#84BE84" rx="3" ry="3" style="stroke:#038048;stroke-width:1;"/><text fill="#000000" font-family="sans-serif" font-size="14" lengthAdjust="spacing" textLength="115.3595" x="75.5" y="277.2439">printValue() : void</text><line style="stroke:#181818;stroke-width:0.5;" x1="56.5" x2="195.8595" y1="285.3458" y2="285.3458"/><rect fill="none" height="6" style="stroke:#C82930;stroke-width:1;" width="6" x="63.5" y="297.3798"/><text fill="#000000" font-family="sans-serif" font-size="14" lengthAdjust="spacing" textLength="84.0697" x="75.5" y="304.3118">m_Value : int</text></g><!--class C_0012273512954318168805--><g class="entity" data-entity="C_0012273512954318168805" data-source-line="9" data-uid="ent0003" id="entity_C_0012273512954318168805"><rect fill="#F1F1F1" height="113.2038" rx="2.5" ry="2.5" style="stroke:#181818;stroke-width:0.5;" width="238.3652" x="7" y="7"/><ellipse cx="110.5646" cy="23" fill="#ADD1B2" rx="11" ry="11" style="stroke:#181818;stroke-width:1;"/><path d="M110.0334,29.9219 Q108.2834,29.9219 107.1428,29.1875 Q106.0178,28.4375 105.4553,27.0938 Q104.9084,25.7344 104.9084,23.9375 Q104.9084,21.9063 105.5646,20.4531 Q106.2209,19 107.5021,18.2188 Q108.7834,17.4375 110.6584,17.4375 Q111.549,17.4375 112.2209,17.625 Q112.8928,17.7969 113.5803,18.1406 L112.7678,20.1563 Q112.1428,19.8438 111.5959,19.7188 Q111.0646,19.5938 110.5803,19.5938 Q109.4084,19.5938 108.7053,20.125 Q108.0021,20.6563 107.7053,21.6094 Q107.4084,22.5625 107.4084,23.8281 Q107.4084,25.8438 108.1271,26.8125 Q108.8459,27.7656 110.4396,27.7656 Q111.0334,27.7656 111.6584,27.6094 Q112.2834,27.4531 113.1115,27.0781 L113.1115,29.2969 Q112.3771,29.6094 111.5803,29.7656 Q110.799,29.9219 110.0334,29.9219 Z " fill="#000000"/><text fill="#000000" font-family="sans-serif" font-size="14" lengthAdjust="spacing" textLength="22.7359" x="131.0646" y="28.432">Bar</text><line style="stroke:#181818;stroke-width:0.5;" x1="8" x2="244.3652" y1="39" y2="39"/><ellipse cx="18" cy="54.034" fill="#84BE84" rx="3" ry="3" style="stroke:#038048;stroke-width:1;"/><text fill="#000000" font-family="sans-serif" font-size="14" lengthAdjust="spacing" textLength="130.9275" x="27" y="57.9659">Bar(Foo * foo) : void</text><line style="stroke:#181818;stroke-width:1;stroke-dasharray:1,2;" x1="8" x2="244.3652" y1="66.0679" y2="66.0679"/><ellipse cx="18" cy="81.1019" fill="#84BE84" rx="3" ry="3" style="stroke:#038048;stroke-width:1;"/><text fill="#000000" font-family="sans-serif" font-size="14" lengthAdjust="spacing" textLength="212.3652" x="27" y="85.0339">printUnderlyingFooValue() : void</text><line style="stroke:#181818;stroke-width:0.5;" x1="8" x2="244.3652" y1="93.1358" y2="93.1358"/><rect fill="none" height="6" style="stroke:#C82930;stroke-width:1;" width="6" x="15" y="105.1698"/><text fill="#000000" font-family="sans-serif" font-size="14" lengthAdjust="spacing" textLength="90.1037" x="27" y="112.1018">m_Foo : Foo *</text></g><!--link C_0012273512954318168805 to C_0011401709187939684127--><g class="link" data-entity-1="C_0012273512954318168805" data-entity-2="C_0011401709187939684127" data-source-line="17" data-uid="lnk4" id="link_C_0012273512954318168805_C_0011401709187939684127"><path codeLine="17" d="M126.18,120.64 C126.18,145.3 126.18,168.19 126.18,192.84" fill="none" id="C_0012273512954318168805-to-C_0011401709187939684127" style="stroke:#181818;stroke-width:1;"/><polygon fill="#181818" points="126.18,198.84,130.18,189.84,126.18,193.84,122.18,189.84,126.18,198.84" style="stroke:#181818;stroke-width:1;"/><rect fill="none" height="6" style="stroke:#C82930;stroke-width:1;" width="6" x="129.18" y="157.563"/><text fill="#000000" font-family="sans-serif" font-size="13" lengthAdjust="spacing" textLength="40.404" x="139.18" y="165.107">m_Foo</text></g><!--SRC=[TP3DJiCm48Jl-nIhN1eeiMpdpyc10qXmAKTwZQp654kfZPmq227UdMr00QdDSMV6izzwr-c-n-Z1-mXrZ_SDvq9aN9Iy4ggiqgfGcP0bxARSaesViAQAsBe1nokiSVIs1SPW_HP8s-hkQE9PRnf83iqaaaG-VFtsHtSw_758MQQva5MUfKA9GYcU_-UuO9yug28c5hp65-_FMPvTQqBtOTsUGXV1Jezhd2e8R75Lajmk_qUDFqK0gqVZJD23QV7T3gz81xXzSZnqDpYQq5llaBE2ILXjDjkdMPjYyoGv4qnz0m00]--></g></svg>